<?xml version="1.0"?>
<svg xmlns="http://www.w3.org/2000/svg" viewBox="0 0 64 64" width="512" height="512"><g id="Bakery-muffin"><path d="M53,34A20.974,20.974,0,0,0,37.348,13.706,5.981,5.981,0,0,0,33,5.09V5a1,1,0,0,1,1-1h4V2H34a3,3,0,0,0-3,3v.09a5.981,5.981,0,0,0-4.348,8.616A20.974,20.974,0,0,0,11,34a5.986,5.986,0,0,0,2.129,4.576L15,61.083A1,1,0,0,0,16,62H48a1,1,0,0,0,1-.917l1.874-22.507A5.986,5.986,0,0,0,53,34ZM31,7.142V9h2V7.142a4,4,0,1,1-2,0ZM15.232,39.733a5.971,5.971,0,0,0,5.924-1.419L21.944,60H16.92ZM23.938,60c0-.013.007-.023.006-.036L23.168,38.6A5.959,5.959,0,0,0,31,38.463V60ZM33,38.463a5.959,5.959,0,0,0,7.809.156L39.931,59.96c0,.014.006.026.006.04H33ZM47.08,60H41.931l.893-21.706a5.97,5.97,0,0,0,5.944,1.439ZM47,38a4,4,0,0,1-4-4,1,1,0,0,0-2,0,4,4,0,0,1-8,0,1,1,0,0,0-2,0,4,4,0,0,1-8,0,1,1,0,0,0-2,0,4,4,0,0,1-8,0A18.968,18.968,0,0,1,27.986,15.447a5.964,5.964,0,0,0,8.028,0A18.968,18.968,0,0,1,51,34,4,4,0,0,1,47,38Z"/></g></svg>
