<svg height="512" viewBox="0 0 60 60" width="512" xmlns="http://www.w3.org/2000/svg"><g id="014---Pizza-Slice" transform="translate(0 -1)"><path id="Shape" d="m8 22c0 .5522847.44771525 1 1 1s1-.4477153 1-1c0-.27 1-.69 1-2s-1-1.73-1-2 1-.69 1-2c0-.5522847-.4477153-1-1-1-.55228475 0-1 .4477153-1 1 0 .27-1 .69-1 2s1 1.73 1 2-1 .69-1 2z"/><path id="Shape" d="m14 15c0 .5522847.4477153 1 1 1s1-.4477153 1-1c0-.27 1-.69 1-2s-1-1.73-1-2 1-.69 1-2c0-.55228475-.4477153-1-1-1s-1 .44771525-1 1c0 .27-1 .69-1 2s1 1.73 1 2-1 .69-1 2z"/><path id="Shape" d="m40.29 31.29-1 1c-.3921221.3921222-.3921221 1.0278778 0 1.42.3921222.3921221 1.0278778.3921221 1.42 0l1-1c.3921221-.3921222.3921221-1.0278778 0-1.42-.3921222-.3921221-1.0278778-.3921221-1.42 0z"/><path id="Shape" d="m29 16.53c.53 0 .67-.26 1.71-1.3.3877236-.3900375.3877236-1.0199625 0-1.41-.1877666-.1893127-.4433625-.2957983-.71-.2957983s-.5222334.1064856-.71.2957983l-1 1c-.2884599.2860905-.3751619.7182668-.219371 1.0934815.155791.3752147.5231059.6188811.929371.6165185z"/><path id="Shape" d="m21 46c.53 0 .67-.26 1.71-1.29.3921221-.3921222.3921221-1.0278778 0-1.42-.3921222-.3921221-1.0278778-.3921221-1.42 0l-1 1c-.2884599.2860905-.3751619.7182668-.219371 1.0934815.155791.3752147.5231059.6188811.929371.6165185z"/><path id="Shape" d="m29 42c2.7614237 0 5-2.2385763 5-5s-2.2385763-5-5-5-5 2.2385763-5 5c0 1.3260824.5267842 2.597852 1.4644661 3.5355339s2.2094515 1.4644661 3.5355339 1.4644661zm0-8c1.6568542 0 3 1.3431458 3 3s-1.3431458 3-3 3-3-1.3431458-3-3 1.3431458-3 3-3z"/><path id="Shape" d="m36 28c2.7614237 0 5-2.2385763 5-5s-2.2385763-5-5-5-5 2.2385763-5 5 2.2385763 5 5 5zm0-8c1.6568542 0 3 1.3431458 3 3s-1.3431458 3-3 3-3-1.3431458-3-3 1.3431458-3 3-3z"/><path id="Shape" d="m4.32 60.68 29.68-14.96v9.17c-.0196496 1.0717968.5339901 2.0726608 1.4523686 2.6255763.9183784.5529155 2.061972.5738814 3 .055.9380281-.5188813 1.5279818-1.4987795 1.5476314-2.5705763v-12.3l2-1v5.2c-.0178633 1.0717968.5374271 2.0717078 1.4566987 2.6230763.9192716.5513684 2.0628652.5704283 3.0000001.05.9371348-.5204284 1.525438-1.5012795 1.5433012-2.5730763v-8.33l10.33-5.2c1.4783022-.7302883 2.0901612-2.516738 1.37-4-6.17-12.74-15.31-22.22-27.17-28.16-1.469994-.72738203-3.2516552-.13943384-4 1.32l-17.47 33.47c-1.48757204.289756-2.76344 1.2385788-3.46905202 2.5798248-.70561201 1.341246-.76480639 2.9301449-.16094798 4.3201752l-7.09 13.65c-.56092928 1.1453424-.33642498 2.5201344.55971855 3.427536.89614354.9074016 2.26802569 1.1490512 3.42028145.602464zm26-57.12c.1163297-.23903654.3230506-.4219154.5744883-.50822981.2514376-.08631441.5268955-.06895964.7655117.04822981 11.43 5.74 20.27 14.9 26.24 27.24.1165059.239847.1323974.5162909.0441435.7679085-.088254.2516177-.2733435.4575683-.5141435.5720915l-2.7 1.32c-6-12-14.7-21-25.84-26.78zm-18.32 34.44c1.6568542 0 3 1.3431458 3 3s-1.3431458 3-3 3-3-1.3431458-3-3 1.3431458-3 3-3zm-9.88 19.57 6.65-12.78c1.5584177 1.3693214 3.8005286 1.6340681 5.6350169.6653784 1.8344882-.9686897 2.8802469-2.9695746 2.6282678-5.0287525-.2519791-2.0591778-1.7493484-3.7488633-3.7632847-4.2466259l14.73-28.18c10.77 5.61 19.17 14.32 25 25.9l-5.85 3c-.6888125.3232153-1.1345619 1.0092816-1.15 1.77v8.33c-.0303757.5522847-.5027153.9753757-1.055.945s-.9753757-.5027153-.945-1.055v-5.2c-.0020978-.6931864-.3629844-1.3358572-.9537643-1.6984739-.59078-.3626166-1.3271992-.3934646-1.9462357-.0815261l-2 1c-.6757726.3405222-1.1014911 1.0332823-1.1 1.79v12.3c.004901.299568-.1247748.5855503-.3533445.7792535-.2285697.1937031-.5319483.274716-.8266555.2207465-.49876-.1270785-.8406565-.5857202-.82-1.1v-9.18c-.0020978-.6931864-.3629844-1.3358572-.9537643-1.6984739-.59078-.3626166-1.3271992-.3934646-1.9462357-.0815261l-29.68 15c-.38779537.1749903-.84385307.0854541-1.13670317-.2231649-.29285011-.3086189-.35836657-.7687417-.16329683-1.1468351z"/></g></svg>