<svg height="512pt" viewBox="0 0 512 512.00049" width="512pt" xmlns="http://www.w3.org/2000/svg"><path d="m256 117c-77.195312 0-140 62.804688-140 140s62.804688 140 140 140 140-62.804688 140-140-62.804688-140-140-140zm0 260c-66.167969 0-120-53.832031-120-120s53.832031-120 120-120 120 53.832031 120 120-53.832031 120-120 120zm0 0"/><path d="m502 343.785156v-333.785156c0-4.277344-2.71875-8.078125-6.765625-9.460938-4.042969-1.382812-8.523437-.039062-11.140625 3.339844-27.84375 35.964844-47.550781 77.777344-57.671875 122.023438-5.636719-7.300782-11.761719-14.300782-18.394531-20.929688-40.605469-40.605468-94.597656-62.972656-152.027344-62.972656s-111.417969 22.363281-152.027344 62.972656c-1.351562 1.351563-2.664062 2.726563-3.972656 4.109375v-99.082031c0-5.523438-4.476562-10-10-10s-10 4.476562-10 10v120h-20v-120c0-5.523438-4.476562-10-10-10s-10 4.476562-10 10v120h-20v-120c0-5.523438-4.476562-10-10-10s-10 4.476562-10 10v130c0 15.777344 7.535156 30.609375 20 39.988281v163.796875c-6.074219 55.765625-10 118.8125-10 128.214844 0 22.054688 17.945312 40 40 40s40-17.945312 40-40c0-7.039062-2.199219-44.148438-5.855469-85.761719 6.023438 7.980469 12.632813 15.597657 19.828125 22.792969 40.609375 40.605469 94.597656 62.96875 152.027344 62.96875s111.421875-22.363281 152.027344-62.972656c12.125-12.121094 22.613281-25.445313 31.375-39.691406-4.570313 48.035156-7.402344 94.683593-7.402344 102.664062 0 22.054688 17.945312 40 40 40s40-17.945312 40-40c0-9.402344-3.925781-72.449219-10-128.214844zm-40-68.785156h20v20h-20zm-19.921875-124.726562c6.003906-38.363282 19.65625-75.246094 39.921875-108.238282v212.964844h-25.855469l-14.140625-14.136719zm-402.078125 124.726562h20v20h-20zm38.269531-125c-2.355469 6.628906-7.015625 12.355469-13.277343 15.980469-3.089844 1.785156-4.992188 5.085937-4.992188 8.652343v80.367188h-20v-80.363281c0-3.570313-1.902344-6.871094-4.992188-8.65625-6.261718-3.625-10.917968-9.351563-13.277343-15.980469zm-28.269531 342c-11.027344 0-20-8.972656-20-20 0-7.621094 10-127.308594 10-127.671875v-29.328125h20v29.328125c0 .363281 10 120.050781 10 127.671875 0 11.03125-8.972656 20-20 20zm206-40c-77.496094 0-144.574219-45.441406-176-111.074219v-160.9375c12.425781-9.347656 19.945312-24.117187 19.996094-39.835937 35.601562-47.417969 92.277344-78.152344 156.003906-78.152344 70.117188 0 131.703125 37.203125 166.074219 92.902344l-.074219 90.089844c0 2.65625 1.050781 5.203124 2.929688 7.082031l17.070312 17.070312v46.425781c-24.925781 78.992188-98.875 136.429688-186 136.429688zm216 40c-11.027344 0-20-8.972656-20-20 0-7.621094 10-127.308594 10-127.671875v-29.328125h20v29.328125c0 .363281 10 120.050781 10 127.671875 0 11.03125-8.972656 20-20 20zm0 0"/><path d="m257.28125 336.992188c-2.671875.039062-5.171875 1.117187-7.03125 3.039062s-2.859375 4.4375-2.8125 7.109375c.042969 2.648437 1.101562 5.121094 2.980469 6.980469 1.882812 1.847656 4.371093 2.871094 7.011719 2.871094h.160156c5.507812-.09375 9.929687-4.644532 9.839844-10.160157-.039063-2.640625-1.101563-5.121093-2.980469-6.972656-1.917969-1.890625-4.507813-2.90625-7.167969-2.867187zm0 0"/><path d="m336 257c.011719 30.582031-17.03125 58.058594-44.46875 71.699219-2.390625 1.191406-4.183594 3.242187-5.03125 5.769531-.851562 2.53125-.667969 5.242188.519531 7.632812 1.699219 3.429688 5.140625 5.558594 8.960938 5.558594 1.550781 0 3.050781-.351562 4.441406-1.050781 16.429687-8.148437 30.308594-20.667969 40.136719-36.207031 10.101562-15.960938 15.441406-34.421875 15.441406-53.402344 0-5.507812-4.488281-10-10-10-5.507812 0-10 4.492188-10 10zm0 0"/></svg>